HIERARCHY
ROOT mixamorig:Hips
{
	OFFSET 0.000000 201.639420 0.000000
	CHANNELS 6 Xposition Yposition Zposition Xrotation Yrotation Zrotation
	JOINT mixamorig:Spine
	{
		OFFSET 0.006200 19.524994 -2.481800
		CHANNELS 3 Xrotation Yrotation Zrotation
		JOINT mixamorig:Spine1
		{
			OFFSET -0.000900 22.835007 -2.825400
			CHANNELS 3 Xrotation Yrotation Zrotation
			JOINT mixamorig:Spine2
			{
				OFFSET -0.020600 26.552490 -3.193300
				CHANNELS 3 Xrotation Yrotation Zrotation
				JOINT mixamorig:Neck
				{
					OFFSET -0.060000 30.701813 1.352200
					CHANNELS 3 Xrotation Yrotation Zrotation
					JOINT mixamorig:Head
					{
						OFFSET -0.087200 22.547607 3.670900
						CHANNELS 3 Xrotation Yrotation Zrotation
						JOINT mixamorig:HeadTop_End
						{
							OFFSET -0.830600 40.355194 7.893500
							CHANNELS 3 Xrotation Yrotation Zrotation
							End Site
							{
								OFFSET 0.000000 30.592346 0.000000
							}
						}
						JOINT mixamorig:RightEye
						{
							OFFSET -6.302100 18.118591 16.197100
							CHANNELS 3 Xrotation Yrotation Zrotation
							End Site
							{
								OFFSET 0.000000 30.592346 0.000000
							}
						}
						JOINT mixamorig:LeftEye
						{
							OFFSET 6.741500 18.382690 16.401899
							CHANNELS 3 Xrotation Yrotation Zrotation
							End Site
							{
								OFFSET 0.000000 30.592346 0.000000
							}
						}
					}
				}
				JOINT mixamorig:LeftShoulder
				{
					OFFSET 11.924900 18.230499 1.425400
					CHANNELS 3 Xrotation Yrotation Zrotation
					JOINT mixamorig:LeftArm
					{
						OFFSET 25.435989 -0.697632 -5.229300
						CHANNELS 3 Xrotation Yrotation Zrotation
						JOINT mixamorig:LeftForeArm
						{
							OFFSET 54.684776 0.000000 0.000000
							CHANNELS 3 Xrotation Yrotation Zrotation
							JOINT mixamorig:LeftHand
							{
								OFFSET 55.098175 0.000000 0.000000
								CHANNELS 3 Xrotation Yrotation Zrotation
								JOINT mixamorig:LeftHandMiddle1
								{
									OFFSET 23.369751 0.000000 0.000000
									CHANNELS 3 Xrotation Yrotation Zrotation
									JOINT mixamorig:LeftHandMiddle2
									{
										OFFSET 6.378677 0.000000 0.000000
										CHANNELS 3 Xrotation Yrotation Zrotation
										JOINT mixamorig:LeftHandMiddle3
										{
											OFFSET 6.148331 0.000000 0.000000
											CHANNELS 3 Xrotation Yrotation Zrotation
											JOINT mixamorig:LeftHandMiddle4
											{
												OFFSET 6.582504 0.000000 0.000000
												CHANNELS 3 Xrotation Yrotation Zrotation
												End Site
												{
													OFFSET -1.168900 6.395691 1.028606
												}
											}
										}
									}
								}
								JOINT mixamorig:LeftHandThumb1
								{
									OFFSET 7.235672 -3.848206 5.434273
									CHANNELS 3 Xrotation Yrotation Zrotation
									JOINT mixamorig:LeftHandThumb2
									{
										OFFSET 6.568451 -3.792297 3.792300
										CHANNELS 3 Xrotation Yrotation Zrotation
										JOINT mixamorig:LeftHandThumb3
										{
											OFFSET 6.063080 -3.500519 3.500518
											CHANNELS 3 Xrotation Yrotation Zrotation
											JOINT mixamorig:LeftHandThumb4
											{
												OFFSET 4.793182 -2.767334 2.767349
												CHANNELS 3 Xrotation Yrotation Zrotation
												End Site
												{
													OFFSET 0.101639 6.054260 1.275483
												}
											}
										}
									}
								}
								JOINT mixamorig:LeftHandIndex1
								{
									OFFSET 23.101074 -0.309540 4.992809
									CHANNELS 3 Xrotation Yrotation Zrotation
									JOINT mixamorig:LeftHandIndex2
									{
										OFFSET 6.226883 0.000000 0.000000
										CHANNELS 3 Xrotation Yrotation Zrotation
										JOINT mixamorig:LeftHandIndex3
										{
											OFFSET 6.094330 0.000000 0.000000
											CHANNELS 3 Xrotation Yrotation Zrotation
											JOINT mixamorig:LeftHandIndex4
											{
												OFFSET 5.482605 0.000000 0.000000
												CHANNELS 3 Xrotation Yrotation Zrotation
												End Site
												{
													OFFSET -1.427902 5.233032 0.797164
												}
											}
										}
									}
								}
								JOINT mixamorig:LeftHandRing1
								{
									OFFSET 22.299240 0.021149 -3.964172
									CHANNELS 3 Xrotation Yrotation Zrotation
									JOINT mixamorig:LeftHandRing2
									{
										OFFSET 6.321869 0.000000 0.000000
										CHANNELS 3 Xrotation Yrotation Zrotation
										JOINT mixamorig:LeftHandRing3
										{
											OFFSET 5.899796 0.000000 0.000000
											CHANNELS 3 Xrotation Yrotation Zrotation
											JOINT mixamorig:LeftHandRing4
											{
												OFFSET 6.517899 0.000000 0.000000
												CHANNELS 3 Xrotation Yrotation Zrotation
												End Site
												{
													OFFSET -1.637299 6.232208 0.980890
												}
											}
										}
									}
								}
								JOINT mixamorig:LeftHandPinky1
								{
									OFFSET 20.463791 -0.302338 -8.562233
									CHANNELS 3 Xrotation Yrotation Zrotation
									JOINT mixamorig:LeftHandPinky2
									{
										OFFSET 6.908646 0.000000 0.000000
										CHANNELS 3 Xrotation Yrotation Zrotation
										JOINT mixamorig:LeftHandPinky3
										{
											OFFSET 4.622849 0.000000 0.000000
											CHANNELS 3 Xrotation Yrotation Zrotation
											JOINT mixamorig:LeftHandPinky4
											{
												OFFSET 5.216080 0.000000 0.000000
												CHANNELS 3 Xrotation Yrotation Zrotation
												End Site
												{
													OFFSET -0.606308 5.116241 0.814926
												}
											}
										}
									}
								}
							}
						}
					}
				}
				JOINT mixamorig:RightShoulder
				{
					OFFSET -12.001300 18.284088 1.348900
					CHANNELS 3 Xrotation Yrotation Zrotation
					JOINT mixamorig:RightArm
					{
						OFFSET -25.308500 -0.751312 -5.164599
						CHANNELS 3 Xrotation Yrotation Zrotation
						JOINT mixamorig:RightForeArm
						{
							OFFSET -54.684429 0.000000 0.000000
							CHANNELS 3 Xrotation Yrotation Zrotation
							JOINT mixamorig:RightHand
							{
								OFFSET -55.150291 0.000000 0.000000
								CHANNELS 3 Xrotation Yrotation Zrotation
								JOINT mixamorig:RightHandMiddle1
								{
									OFFSET -23.317566 0.000000 0.000000
									CHANNELS 3 Xrotation Yrotation Zrotation
									JOINT mixamorig:RightHandMiddle2
									{
										OFFSET -6.378403 0.000000 0.000000
										CHANNELS 3 Xrotation Yrotation Zrotation
										JOINT mixamorig:RightHandMiddle3
										{
											OFFSET -6.148193 0.000000 0.000000
											CHANNELS 3 Xrotation Yrotation Zrotation
											JOINT mixamorig:RightHandMiddle4
											{
												OFFSET -6.583389 0.000000 0.000000
												CHANNELS 3 Xrotation Yrotation Zrotation
												End Site
												{
													OFFSET 1.171692 6.395905 1.029786
												}
											}
										}
									}
								}
								JOINT mixamorig:RightHandThumb1
								{
									OFFSET -7.190521 -3.860474 5.435846
									CHANNELS 3 Xrotation Yrotation Zrotation
									JOINT mixamorig:RightHandThumb2
									{
										OFFSET -6.567429 -3.791718 3.791708
										CHANNELS 3 Xrotation Yrotation Zrotation
										JOINT mixamorig:RightHandThumb3
										{
											OFFSET -6.062469 -3.500153 3.500166
											CHANNELS 3 Xrotation Yrotation Zrotation
											JOINT mixamorig:RightHandThumb4
											{
												OFFSET -4.792618 -2.767029 2.767022
												CHANNELS 3 Xrotation Yrotation Zrotation
												End Site
												{
													OFFSET -0.100327 6.053253 1.276754
												}
											}
										}
									}
								}
								JOINT mixamorig:RightHandIndex1
								{
									OFFSET -23.048981 -0.310791 4.992554
									CHANNELS 3 Xrotation Yrotation Zrotation
									JOINT mixamorig:RightHandIndex2
									{
										OFFSET -6.227539 0.000000 0.000000
										CHANNELS 3 Xrotation Yrotation Zrotation
										JOINT mixamorig:RightHandIndex3
										{
											OFFSET -6.095047 0.000000 0.000000
											CHANNELS 3 Xrotation Yrotation Zrotation
											JOINT mixamorig:RightHandIndex4
											{
												OFFSET -5.484772 0.000000 0.000000
												CHANNELS 3 Xrotation Yrotation Zrotation
												End Site
												{
													OFFSET 1.420593 5.237305 0.797056
												}
											}
										}
									}
								}
								JOINT mixamorig:RightHandRing1
								{
									OFFSET -22.246323 0.020569 -3.963762
									CHANNELS 3 Xrotation Yrotation Zrotation
									JOINT mixamorig:RightHandRing2
									{
										OFFSET -6.322128 0.000000 0.000000
										CHANNELS 3 Xrotation Yrotation Zrotation
										JOINT mixamorig:RightHandRing3
										{
											OFFSET -5.900024 0.000000 0.000000
											CHANNELS 3 Xrotation Yrotation Zrotation
											JOINT mixamorig:RightHandRing4
											{
												OFFSET -6.518356 0.000000 0.000000
												CHANNELS 3 Xrotation Yrotation Zrotation
												End Site
												{
													OFFSET 1.636398 6.232697 0.982186
												}
											}
										}
									}
								}
								JOINT mixamorig:RightHandPinky1
								{
									OFFSET -20.411011 -0.303314 -8.561701
									CHANNELS 3 Xrotation Yrotation Zrotation
									JOINT mixamorig:RightHandPinky2
									{
										OFFSET -6.907349 0.000000 0.000000
										CHANNELS 3 Xrotation Yrotation Zrotation
										JOINT mixamorig:RightHandPinky3
										{
											OFFSET -4.623840 0.000000 0.000000
											CHANNELS 3 Xrotation Yrotation Zrotation
											JOINT mixamorig:RightHandPinky4
											{
												OFFSET -5.218353 0.000000 0.000000
												CHANNELS 3 Xrotation Yrotation Zrotation
												End Site
												{
													OFFSET 0.602097 5.118835 0.816273
												}
											}
										}
									}
								}
							}
						}
					}
				}
			}
		}
	}
	JOINT mixamorig:LeftUpLeg
	{
		OFFSET 18.168400 -13.561905 -0.039000
		CHANNELS 3 Xrotation Yrotation Zrotation
		JOINT mixamorig:LeftLeg
		{
			OFFSET 0.577358 -80.825211 -3.695000
			CHANNELS 3 Xrotation Yrotation Zrotation
			JOINT mixamorig:LeftFoot
			{
				OFFSET -0.577356 -83.370262 -6.520700
				CHANNELS 3 Xrotation Yrotation Zrotation
				JOINT mixamorig:LeftToeBase
				{
					OFFSET 0.750401 -20.798306 25.135401
					CHANNELS 3 Xrotation Yrotation Zrotation
					JOINT mixamorig:LeftToe_End
					{
						OFFSET -0.000500 0.001200 19.917799
						CHANNELS 3 Xrotation Yrotation Zrotation
						End Site
						{
							OFFSET 0.000000 19.917805 0.000000
						}
					}
				}
			}
		}
	}
	JOINT mixamorig:RightUpLeg
	{
		OFFSET -18.162500 -13.585098 -0.041000
		CHANNELS 3 Xrotation Yrotation Zrotation
		JOINT mixamorig:RightLeg
		{
			OFFSET -0.595024 -80.945297 -3.631900
			CHANNELS 3 Xrotation Yrotation Zrotation
			JOINT mixamorig:RightFoot
			{
				OFFSET 0.595024 -83.218193 -6.561200
				CHANNELS 3 Xrotation Yrotation Zrotation
				JOINT mixamorig:RightToeBase
				{
					OFFSET -0.753601 -20.807106 25.115000
					CHANNELS 3 Xrotation Yrotation Zrotation
					JOINT mixamorig:RightToe_End
					{
						OFFSET 0.000299 0.001700 19.918200
						CHANNELS 3 Xrotation Yrotation Zrotation
						End Site
						{
							OFFSET 0.000000 19.918203 0.000000
						}
					}
				}
			}
		}
	}
}
MOTION
Frames: 4
Frame Time: 0.033333
0.449615 76.583420 -17.338789 3.039139 -1.658462 -2.929110 35.922004 5.905142 1.911272 12.579158 -1.294977 -2.448518 12.737537 -3.482858 1.799316 -27.245029 -1.284510 5.332321 -8.759904 2.311979 -2.737336 0.000001 0.000000 -0.000000 0.000001 0.000000 -0.000000 0.000001 0.000000 -0.000000 1.527182 -13.850354 -4.397572 5.814304 -38.492453 -1.852784 0.000011 -26.406956 0.000000 0.267197 -20.058500 -18.363075 5.525244 8.191197 -83.680459 3.336170 5.284695 -64.505235 1.820539 4.244941 -46.410811 0.000001 -0.000000 -0.000001 35.508258 -37.260909 -10.059948 -2.852825 51.529522 25.374482 -3.573687 37.502687 36.636575 0.000005 -0.000000 0.000000 5.496208 8.183854 -85.842787 3.581662 5.394434 -67.142925 1.934745 4.350501 -47.934698 -0.000001 -0.000000 -0.000001 5.793771 8.207657 -85.421932 3.265883 5.250760 -63.739551 1.871453 4.292667 -47.094602 0.000001 0.000000 -0.000000 6.089690 8.208760 -91.656009 3.481261 5.351187 -66.070626 1.942578 4.357553 -48.037772 -0.000001 -0.000000 0.000001 0.414382 21.335651 12.069889 -10.208190 31.527392 8.992627 -0.000003 24.588464 -0.000012 20.021993 15.200214 16.684562 1.607356 -5.755882 48.252196 3.305815 -4.457221 73.114218 1.900442 -3.755062 53.675451 0.000000 0.000000 -0.000003 32.505946 27.038887 0.615824 12.433730 -29.190367 -12.958699 -26.424948 -67.051100 -58.493009 -0.000002 -0.000000 -0.000001 1.899418 -5.994721 52.900061 3.250674 -4.440121 72.403700 1.771035 -3.656595 51.673673 0.000001 0.000000 -0.000001 1.731025 -5.861880 50.258093 3.228074 -4.432940 72.111525 1.835290 -3.706389 52.674508 -0.000001 0.000000 -0.000002 1.858350 -5.963467 52.264625 1.534683 -3.457048 47.865276 2.142572 -3.921205 57.291671 -0.000001 -0.000000 0.000002 -126.520307 -14.312781 10.699786 134.299879 -3.093568 1.791216 -9.659254 -0.101922 -2.386452 -2.584259 -0.000000 -0.000001 0.000000 -0.000000 -0.000000 -124.232904 5.987766 -9.937679 133.387802 3.680975 -0.496611 -11.242800 0.031294 2.641309 -3.133729 0.000008 -0.000000 -0.000000 -0.000000 0.000000 
0.389731 76.660812 -16.645388 6.404660 -1.796283 -3.465880 35.639674 4.750551 0.783413 12.719812 -0.715113 -1.635803 12.797405 -2.217788 1.380744 -27.278623 -1.679701 5.253017 -8.919022 1.936957 -2.694982 -0.000005 0.000000 -0.000000 -0.000005 0.000000 -0.000000 -0.000005 0.000000 -0.000000 1.549279 -11.961932 -3.901873 5.560156 -43.078768 -1.564594 -0.000006 -21.575579 0.000007 2.641408 -23.140146 -19.062136 5.003531 8.131952 -78.764068 3.119775 5.176413 -62.131868 1.706553 4.133721 -44.850314 -0.000000 -0.000000 -0.000000 34.075862 -35.591470 -11.466344 -0.575504 48.319480 23.280701 -3.750469 32.673566 37.041076 -0.000001 0.000000 -0.000001 5.052853 8.135094 -81.431120 3.353332 5.292840 -64.691399 1.805689 4.230782 -46.209802 -0.000001 -0.000001 0.000000 5.200175 8.159031 -80.808050 3.051580 5.139938 -61.373286 1.749913 4.176743 -45.449144 0.000000 0.000001 0.000000 5.232844 8.176092 -85.820753 3.255337 5.245584 -63.624380 1.811559 4.236392 -46.289179 -0.000001 0.000000 0.000001 0.721111 19.473629 11.092637 -9.593422 34.422145 8.919977 -0.000000 20.239176 0.000009 19.707157 19.108827 17.499915 1.445775 -5.605371 45.524731 3.136366 -4.402385 70.920853 1.782015 -3.665232 51.845364 0.000002 -0.000000 0.000001 30.660050 26.758140 1.799972 12.325648 -29.418882 -13.265963 -21.295008 -63.457505 -53.068787 0.000001 -0.000000 0.000001 1.761340 -5.886725 50.681793 2.956577 -4.336182 68.561357 1.674639 -3.578452 50.145965 -0.000000 0.000000 -0.000002 1.582168 -5.733345 47.856588 2.974655 -4.343252 68.800174 1.823450 -3.697328 52.490895 0.000000 -0.000000 0.000001 1.698535 -5.834725 49.799312 1.405534 -3.335865 45.685541 1.967391 -3.803279 54.691128 0.000000 -0.000001 0.000001 -130.054711 -14.757571 9.733850 134.216482 -2.628624 2.071843 -9.546351 -0.064352 -3.009923 -2.624466 0.000002 0.000000 -0.000000 0.000001 -0.000000 -127.256820 5.244858 -9.566135 133.224233 2.844876 -0.742386 -11.442068 -0.013167 3.298529 -3.155911 0.000003 0.000001 0.000000 0.000000 0.000000 
0.177555 79.580688 -15.614735 10.229951 -1.792743 -3.804615 34.659262 3.505524 -0.280499 12.617638 -0.070738 -0.697303 12.636904 -0.823654 0.967391 -27.392410 -2.045694 5.033001 -9.776401 1.376787 -3.209784 0.000001 0.000000 -0.000000 0.000001 0.000000 -0.000000 0.000001 0.000000 -0.000000 1.533121 -11.784937 -3.848433 6.590021 -45.514260 -0.632028 0.000008 -16.654192 0.000002 4.510917 -24.775905 -15.814878 3.842790 7.824161 -67.452455 2.636830 4.891699 -56.632329 1.456106 3.866343 -41.261624 -0.000000 0.000002 -0.000000 30.825419 -31.595004 -14.366408 3.751950 40.910357 19.254689 -2.957198 21.567308 37.019410 0.000001 0.000001 0.000000 4.041867 7.892282 -71.104995 2.841865 5.020237 -59.005417 1.523621 3.941791 -42.253015 0.000001 -0.000000 0.000001 3.897706 7.841395 -70.025374 2.573501 4.849556 -55.886483 1.483852 3.897672 -41.671158 -0.000001 0.000001 0.000000 3.424342 7.709607 -72.393742 2.755159 4.967323 -58.009295 1.525856 3.944241 -42.285520 0.000000 0.000001 0.000001 0.667623 19.151092 11.352912 -8.596920 36.155292 7.336964 0.000003 15.181391 -0.000011 21.916892 22.233893 14.429652 1.100874 -5.229170 39.212430 2.736842 -4.243622 65.624574 1.508333 -3.433057 47.426658 0.000001 0.000000 -0.000003 26.326028 25.925931 4.692310 12.105277 -29.725646 -13.958893 -13.226116 -54.834490 -43.976040 0.000001 -0.000000 0.000000 1.456531 -5.615903 45.474173 2.314502 -4.026155 59.772222 1.450725 -3.379321 46.457113 0.000002 0.000001 -0.000003 1.256995 -5.409827 42.268250 2.417326 -4.084223 61.225952 1.792156 -3.673141 52.004053 -0.000000 -0.000001 0.000003 1.347437 -5.506406 44.069296 1.128061 -3.040772 40.699895 1.588631 -3.505009 48.753948 -0.000002 -0.000001 0.000001 -131.009804 -14.651656 9.258712 132.781664 -2.121070 2.234906 -11.036242 0.046598 -3.736159 -2.636948 -0.000006 0.000001 -0.000000 0.000001 -0.000000 -128.007376 4.225122 -9.321421 131.805480 1.863981 -0.965494 -13.146530 -0.106191 3.880290 -3.170930 -0.000006 -0.000000 0.000000 -0.000001 0.000000 
-0.182450 85.399292 -14.127472 14.638379 -1.664349 -3.990530 33.313220 2.597398 -0.950789 12.288382 0.470553 0.095600 12.282062 0.317273 0.664677 -27.926282 -2.249840 4.662241 -12.661701 0.783387 -3.973856 0.000001 -0.000000 -0.000000 0.000001 -0.000000 -0.000000 0.000001 -0.000000 -0.000000 1.472545 -13.847344 -5.120317 6.944798 -45.029897 0.253751 -0.000010 -12.714934 -0.000000 6.077147 -24.595083 -7.809721 2.408743 7.039331 -51.929594 2.019438 4.425242 -49.041486 1.138244 3.471494 -36.297186 -0.000000 -0.000001 0.000000 26.366280 -25.737044 -17.793993 8.316321 30.722546 14.935339 -0.436939 7.128343 35.262931 0.000001 -0.000001 0.000001 2.665475 7.218589 -56.594176 2.183510 4.562051 -51.135420 1.168836 3.512736 -36.799509 -0.000000 0.000000 0.000000 2.354296 7.003124 -54.965182 1.962568 4.375384 -48.300386 1.148092 3.484872 -36.459680 0.000001 -0.000001 0.000002 1.509690 6.398541 -53.945879 2.114619 4.505854 -50.264008 1.167813 3.511350 -36.782758 0.000000 -0.000000 -0.000001 0.201740 20.093337 13.596770 -8.101981 37.165525 4.478068 0.000003 10.413170 0.000024 26.983673 22.697946 8.755373 0.688050 -4.637313 30.433103 2.181340 -3.945775 57.856695 1.141162 -3.055903 40.946216 0.000001 -0.000001 0.000001 20.196951 24.245512 9.031267 11.880274 -29.596521 -14.844829 -6.483350 -42.719350 -34.993009 0.000001 -0.000003 -0.000002 1.009213 -5.113965 38.051336 1.525414 -3.448632 47.711702 1.146522 -3.062094 41.046524 0.000001 0.000000 -0.000001 0.875197 -4.930337 34.419478 1.717689 -3.613873 50.832443 1.741119 -3.632801 51.203193 0.000000 0.000000 0.000003 0.972416 -5.065939 36.036522 0.791075 -2.598617 33.857750 1.124278 -3.036368 40.628445 -0.000002 0.000000 0.000000 -129.679884 -14.118398 9.249323 129.805641 -1.612582 2.212213 -13.764680 0.235170 -4.495639 -2.627796 0.000007 0.000002 -0.000000 0.000000 -0.000000 -126.728723 3.061494 -9.084050 128.906269 0.788268 -1.073753 -15.992772 -0.259127 4.438730 -3.207258 0.000005 0.000000 0.000000 -0.000001 0.000000 
